<?xml version="1.0" encoding="utf-8"?>
<svg width="48px" height="48px" viewBox="0 0 48 48" version="1.1" xmlns:xlink="http://www.w3.org/1999/xlink" xmlns="http://www.w3.org/2000/svg">
  <defs>
    <path d="M15.399 1L34.401 1Q34.5483 1 34.695 1.01444Q34.8416 1.02888 34.9861 1.05762Q35.1306 1.08637 35.2716 1.12914Q35.4125 1.1719 35.5487 1.22829Q35.6848 1.28467 35.8147 1.35412Q35.9446 1.42357 36.0671 1.50542Q36.1897 1.58728 36.3035 1.68074Q36.4174 1.77421 36.5216 1.87839Q36.6258 1.98257 36.7192 2.09645Q36.8127 2.21034 36.8946 2.33284Q36.9764 2.45535 37.0459 2.58528Q37.1153 2.71522 37.1717 2.85133Q37.2281 2.98745 37.2709 3.12844Q37.3136 3.26942 37.3424 3.41392Q37.3711 3.55842 37.3856 3.70505Q37.4 3.85167 37.4 3.999L37.4 44.001Q37.4 44.1483 37.3856 44.2949Q37.3711 44.4416 37.3424 44.5861Q37.3136 44.7306 37.2709 44.8716Q37.2281 45.0125 37.1717 45.1487Q37.1153 45.2848 37.0459 45.4147Q36.9764 45.5446 36.8946 45.6671Q36.8127 45.7897 36.7192 45.9035Q36.6258 46.0174 36.5216 46.1216Q36.4174 46.2258 36.3035 46.3193Q36.1897 46.4127 36.0671 46.4946Q35.9446 46.5764 35.8147 46.6459Q35.6848 46.7153 35.5487 46.7717Q35.4125 46.8281 35.2716 46.8709Q35.1306 46.9136 34.9861 46.9424Q34.8416 46.9711 34.6949 46.9856Q34.5483 47 34.401 47L15.399 47Q15.2517 47 15.105 46.9856Q14.9584 46.9711 14.8139 46.9424Q14.6694 46.9136 14.5284 46.8709Q14.3874 46.8281 14.2513 46.7717Q14.1152 46.7153 13.9853 46.6459Q13.8553 46.5764 13.7328 46.4946Q13.6103 46.4127 13.4964 46.3193Q13.3826 46.2258 13.2784 46.1216Q13.1742 46.0174 13.0807 45.9035Q12.9873 45.7896 12.9054 45.6671Q12.8236 45.5446 12.7541 45.4147Q12.6847 45.2848 12.6283 45.1487Q12.5719 45.0125 12.5291 44.8716Q12.4864 44.7306 12.4576 44.5861Q12.4289 44.4416 12.4144 44.295Q12.4 44.1483 12.4 44.001L12.4 3.999Q12.4 3.85167 12.4144 3.70505Q12.4289 3.55842 12.4576 3.41392Q12.4864 3.26942 12.5291 3.12844Q12.5719 2.98745 12.6283 2.85133Q12.6847 2.71522 12.7541 2.58528Q12.8236 2.45535 12.9054 2.33284Q12.9873 2.21034 13.0807 2.09645Q13.1742 1.98257 13.2784 1.87839Q13.3826 1.77421 13.4964 1.68074Q13.6103 1.58728 13.7328 1.50542Q13.8553 1.42357 13.9853 1.35412Q14.1152 1.28467 14.2513 1.22829Q14.3874 1.1719 14.5284 1.12914Q14.6694 1.08637 14.8139 1.05762Q14.9584 1.02888 15.105 1.01444Q15.2517 1 15.399 1L15.399 1Z" id="path_1" />
    <rect width="48" height="48" id="artboard_1" />
    <clipPath id="clip_1">
      <use xlink:href="#artboard_1" clip-rule="evenodd" />
    </clipPath>
    <clipPath id="clip_2">
      <use xlink:href="#path_1" />
    </clipPath>
  </defs>
  <g id="logo48x48" clip-path="url(#clip_1)">
    <use xlink:href="#artboard_1" stroke="none" fill="#FFFFFF" />
    <g id="Rectangle" artboard="86dc3fea-68bf-4f0d-903a-2a08800281ca">
      <use stroke="none" fill="#EEEEEE" xlink:href="#path_1" fill-rule="evenodd" />
      <g clip-path="url(#clip_2)">
        <use xlink:href="#path_1" fill="none" stroke="#363636" stroke-width="2" />
      </g>
    </g>
    <g id="Groupes" transform="translate(18.84375 3.4666748)" artboard="31d501bf-5f4e-4eb9-ad13-0458df529f69">
      <path d="M2.374 0L9.8135 0Q9.86265 0 9.91085 0.00958814Q9.95905 0.0191763 10.0045 0.0379841Q10.0499 0.0567919 10.0907 0.0840967Q10.1316 0.111401 10.1663 0.146154Q10.2011 0.180906 10.2284 0.22177Q10.2557 0.262635 10.2745 0.308041Q10.2933 0.353447 10.3029 0.40165Q10.3125 0.449853 10.3125 0.499L10.3125 0.501Q10.3125 0.550147 10.3029 0.59835Q10.2933 0.646553 10.2745 0.691959Q10.2557 0.737365 10.2284 0.778229Q10.2011 0.819094 10.1663 0.853846Q10.1316 0.888599 10.0907 0.915903Q10.0499 0.943208 10.0045 0.962016Q9.95905 0.980824 9.91085 0.990412Q9.86265 1 9.8135 1L2.374 1Q2.32485 1 2.27665 0.990412Q2.22845 0.980824 2.18304 0.962016Q2.13763 0.943208 2.09677 0.915903Q2.05591 0.888599 2.02115 0.853846Q1.9864 0.819094 1.9591 0.778229Q1.93179 0.737365 1.91298 0.691959Q1.89418 0.646553 1.88459 0.59835Q1.875 0.550147 1.875 0.501L1.875 0.499Q1.875 0.449853 1.88459 0.40165Q1.89418 0.353447 1.91298 0.308041Q1.93179 0.262635 1.9591 0.22177Q1.9864 0.180906 2.02115 0.146154Q2.05591 0.111401 2.09677 0.0840967Q2.13763 0.0567919 2.18304 0.0379841Q2.22845 0.0191763 2.27665 0.00958814Q2.32485 0 2.374 0Z" id="Rectangle-2" fill="#363636" fill-rule="evenodd" stroke="none" />
      <path d="M0 0.5C0 0.223858 0.209867 0 0.46875 0C0.727633 0 0.9375 0.223858 0.9375 0.5C0.9375 0.776142 0.727633 1 0.46875 1C0.209867 1 0 0.776142 0 0.5Z" id="Ovale" fill="#363636" fill-rule="evenodd" stroke="none" />
    </g>
  </g>
</svg>