<?xml version="1.0" encoding="utf-8"?>
<svg width="16px" height="16px" viewBox="0 0 16 16" version="1.1" xmlns:xlink="http://www.w3.org/1999/xlink" xmlns="http://www.w3.org/2000/svg">
  <defs>
    <path d="M3.99899 0L11.001 0Q11.0994 0 11.1959 0.0191955Q11.2924 0.038391 11.3833 0.0760443Q11.4742 0.113698 11.556 0.168362Q11.6378 0.223026 11.7074 0.2926Q11.777 0.362175 11.8316 0.443985Q11.8863 0.525796 11.9239 0.616699Q11.9616 0.707602 11.9808 0.804105Q12 0.900607 12 0.999L12 15.001Q12 15.0994 11.9808 15.1959Q11.9616 15.2924 11.9239 15.3833Q11.8863 15.4742 11.8316 15.556Q11.777 15.6378 11.7074 15.7074Q11.6378 15.777 11.556 15.8316Q11.4742 15.8863 11.3833 15.924Q11.2924 15.9616 11.1959 15.9808Q11.0994 16 11.001 16L3.99899 16Q3.9006 16 3.8041 15.9808Q3.70759 15.9616 3.61669 15.924Q3.52579 15.8863 3.44398 15.8316Q3.36217 15.777 3.29259 15.7074Q3.22302 15.6378 3.16835 15.556Q3.11369 15.4742 3.07604 15.3833Q3.03838 15.2924 3.01919 15.1959Q2.99999 15.0994 2.99999 15.001L2.99999 0.999Q2.99999 0.900607 3.01919 0.804105Q3.03838 0.707602 3.07604 0.616699Q3.11369 0.525796 3.16835 0.443985Q3.22302 0.362175 3.29259 0.2926Q3.36217 0.223026 3.44398 0.168362Q3.52579 0.113698 3.61669 0.0760443Q3.70759 0.038391 3.8041 0.0191955Q3.9006 0 3.99899 0Z" id="path_1" />
    <rect width="16" height="16" id="artboard_1" />
    <clipPath id="clip_1">
      <use xlink:href="#artboard_1" clip-rule="evenodd" />
    </clipPath>
    <clipPath id="clip_2">
      <use xlink:href="#path_1" />
    </clipPath>
  </defs>
  <g id="logo16x16" clip-path="url(#clip_1)">
    <use xlink:href="#artboard_1" stroke="none" fill="#FFFFFF" fill-opacity="0" />
    <g id="Rectangle" artboard="86dc3fea-68bf-4f0d-903a-2a08800281ca">
      <use stroke="none" fill="#EEEEEE" xlink:href="#path_1" fill-rule="evenodd" />
      <g clip-path="url(#clip_2)">
        <use xlink:href="#path_1" fill="none" stroke="#363636" stroke-width="1" />
      </g>
    </g>
    <g id="Groupes" transform="translate(4.7999496 0.8999634)" artboard="61912bc3-a197-48d7-8254-de50b31a2ac3">
      <path d="M1.4491 0.100006L4.9511 0.100006Q5.00062 0.100006 5.04638 0.11896Q5.09214 0.137914 5.12716 0.172936Q5.16219 0.207959 5.18114 0.253718Q5.2001 0.299477 5.2001 0.349006L5.2001 0.351006Q5.2001 0.400535 5.18114 0.446294Q5.16219 0.492053 5.12716 0.527076Q5.09214 0.562098 5.04638 0.581052Q5.00062 0.600006 4.9511 0.600006L1.4491 0.600006Q1.39957 0.600006 1.35381 0.581052Q1.30805 0.562098 1.27303 0.527076Q1.238 0.492053 1.21905 0.446294Q1.2001 0.400535 1.2001 0.351006L1.2001 0.349006Q1.2001 0.299477 1.21905 0.253718Q1.238 0.207959 1.27303 0.172936Q1.30805 0.137914 1.35381 0.11896Q1.39957 0.100006 1.4491 0.100006Z" id="Rectangle-2" fill="#363636" fill-rule="evenodd" stroke="none" />
      <path d="M0 0.3C0 0.134315 0.134315 0 0.3 0C0.465685 0 0.6 0.134315 0.6 0.3C0.6 0.465685 0.465685 0.6 0.3 0.6C0.134315 0.6 0 0.465685 0 0.3Z" id="Ovale" fill="#363636" fill-rule="evenodd" stroke="none" />
    </g>
  </g>
</svg>