<?xml version="1.0" encoding="utf-8"?>
<svg width="128px" height="128px" viewBox="0 0 128 128" version="1.1" xmlns:xlink="http://www.w3.org/1999/xlink" xmlns="http://www.w3.org/2000/svg">
  <defs>
    <path d="M2.999 0L61.001 0Q61.1483 0 61.295 0.014441Q61.4416 0.028882 61.5861 0.0576249Q61.7306 0.0863679 61.8716 0.129136Q62.0125 0.171904 62.1487 0.228285Q62.2848 0.284667 62.4147 0.354118Q62.5446 0.42357 62.6671 0.505423Q62.7897 0.587276 62.9035 0.680742Q63.0174 0.774208 63.1216 0.878387Q63.2258 0.982566 63.3193 1.09645Q63.4127 1.21034 63.4946 1.33284Q63.5764 1.45535 63.6459 1.58528Q63.7153 1.71522 63.7717 1.85133Q63.8281 1.98745 63.8709 2.12844Q63.9136 2.26942 63.9424 2.41392Q63.9711 2.55842 63.9856 2.70505Q64 2.85167 64 2.999L64 117.001Q64 117.148 63.9856 117.295Q63.9711 117.442 63.9424 117.586Q63.9136 117.731 63.8709 117.872Q63.8281 118.013 63.7717 118.149Q63.7153 118.285 63.6459 118.415Q63.5764 118.545 63.4946 118.667Q63.4127 118.79 63.3193 118.904Q63.2258 119.017 63.1216 119.122Q63.0174 119.226 62.9035 119.319Q62.7897 119.413 62.6672 119.495Q62.5447 119.576 62.4147 119.646Q62.2848 119.715 62.1487 119.772Q62.0125 119.828 61.8716 119.871Q61.7306 119.914 61.5861 119.942Q61.4416 119.971 61.2949 119.986Q61.1483 120 61.001 120L2.999 120Q2.85167 120 2.70505 119.986Q2.55842 119.971 2.41392 119.942Q2.26942 119.914 2.12844 119.871Q1.98745 119.828 1.85133 119.772Q1.71522 119.715 1.58528 119.646Q1.45535 119.576 1.33284 119.495Q1.21034 119.413 1.09645 119.319Q0.982566 119.226 0.878387 119.122Q0.774208 119.017 0.680742 118.904Q0.587276 118.79 0.505423 118.667Q0.42357 118.545 0.354118 118.415Q0.284667 118.285 0.228285 118.149Q0.171904 118.013 0.129136 117.872Q0.0863679 117.731 0.0576249 117.586Q0.028882 117.442 0.014441 117.295Q0 117.148 0 117.001L0 2.999Q0 2.85167 0.014441 2.70505Q0.028882 2.55842 0.0576249 2.41392Q0.0863679 2.26942 0.129136 2.12844Q0.171904 1.98745 0.228285 1.85133Q0.284667 1.71522 0.354118 1.58528Q0.42357 1.45535 0.505423 1.33284Q0.587276 1.21034 0.680742 1.09645Q0.774208 0.982566 0.878387 0.878387Q0.982566 0.774208 1.09645 0.680742Q1.21034 0.587276 1.33284 0.505423Q1.45535 0.42357 1.58528 0.354118Q1.71522 0.284667 1.85133 0.228285Q1.98745 0.171904 2.12844 0.129136Q2.26942 0.0863679 2.41392 0.0576249Q2.55842 0.028882 2.70505 0.014441Q2.85167 0 2.999 0Z" id="path_1" />
    <rect width="128" height="128" id="artboard_1" />
    <clipPath id="clip_1">
      <use xlink:href="#artboard_1" clip-rule="evenodd" />
    </clipPath>
    <clipPath id="clip_2">
      <use xlink:href="#path_1" />
    </clipPath>
  </defs>
  <g id="logo128x128" clip-path="url(#clip_1)">
    <use xlink:href="#artboard_1" stroke="none" fill="#FFFFFF" fill-opacity="0" />
    <g id="Phone" transform="translate(32 4)" artboard="452e26ac-66cc-4794-8fc3-9ac6d5e8e419">
      <g id="Rectangle">
        <use stroke="none" fill="#EEEEEE" xlink:href="#path_1" fill-rule="evenodd" />
        <g clip-path="url(#clip_2)">
          <use xlink:href="#path_1" fill="none" stroke="#363636" stroke-width="4" />
        </g>
      </g>
      <g id="Groupes" transform="translate(21 4)">
        <path d="M4.999 0L21.001 0Q21.0994 0 21.1959 0.0191955Q21.2924 0.038391 21.3833 0.0760443Q21.4742 0.113698 21.556 0.168362Q21.6378 0.223026 21.7074 0.2926Q21.777 0.362175 21.8316 0.443985Q21.8863 0.525796 21.924 0.616699Q21.9616 0.707602 21.9808 0.804105Q22 0.900607 22 0.999L22 1.001Q22 1.09939 21.9808 1.1959Q21.9616 1.2924 21.924 1.3833Q21.8863 1.4742 21.8316 1.55601Q21.777 1.63783 21.7074 1.7074Q21.6378 1.77697 21.556 1.83164Q21.4742 1.8863 21.3833 1.92396Q21.2924 1.96161 21.1959 1.9808Q21.0994 2 21.001 2L4.999 2Q4.90061 2 4.8041 1.9808Q4.7076 1.96161 4.6167 1.92396Q4.5258 1.8863 4.44398 1.83164Q4.36217 1.77697 4.2926 1.7074Q4.22303 1.63783 4.16836 1.55601Q4.1137 1.4742 4.07604 1.3833Q4.03839 1.2924 4.0192 1.1959Q4 1.09939 4 1.001L4 0.999Q4 0.900607 4.0192 0.804105Q4.03839 0.707602 4.07604 0.616699Q4.1137 0.525796 4.16836 0.443985Q4.22303 0.362175 4.2926 0.2926Q4.36217 0.223026 4.44398 0.168362Q4.5258 0.113698 4.6167 0.0760443Q4.7076 0.038391 4.8041 0.0191955Q4.90061 0 4.999 0Z" id="Rectangle-2" fill="#363636" fill-rule="evenodd" stroke="none" />
        <path d="M0 1C0 0.447715 0.447715 0 1 0C1.55228 0 2 0.447715 2 1C2 1.55228 1.55228 2 1 2C0.447715 2 0 1.55228 0 1Z" id="Ovale" fill="#363636" fill-rule="evenodd" stroke="none" />
      </g>
    </g>
  </g>
</svg>