<?xml version="1.0" encoding="utf-8"?>
<svg width="32px" height="32px" viewBox="0 0 32 32" version="1.1" xmlns:xlink="http://www.w3.org/1999/xlink" xmlns="http://www.w3.org/2000/svg">
  <defs>
    <path d="M10.399 1L23.401 1Q23.4992 1 23.5969 1.00963Q23.6947 1.01925 23.791 1.03841Q23.8873 1.05757 23.9813 1.08608Q24.0752 1.11458 24.166 1.15216Q24.2567 1.18975 24.3433 1.23604Q24.4299 1.28233 24.5116 1.33689Q24.5932 1.39145 24.6691 1.45375Q24.7451 1.51605 24.8145 1.58549Q24.8839 1.65493 24.9462 1.73085Q25.0085 1.80676 25.0631 1.88842Q25.1177 1.97007 25.164 2.05668Q25.2102 2.14329 25.2478 2.23402Q25.2854 2.32474 25.3139 2.41872Q25.3424 2.5127 25.3616 2.60901Q25.3807 2.70533 25.3904 2.80306Q25.4 2.9008 25.4 2.999L25.4 29.001Q25.4 29.0992 25.3904 29.1969Q25.3807 29.2947 25.3616 29.391Q25.3424 29.4873 25.3139 29.5813Q25.2854 29.6753 25.2478 29.766Q25.2102 29.8567 25.164 29.9433Q25.1177 30.0299 25.0631 30.1116Q25.0085 30.1932 24.9462 30.2691Q24.8839 30.3451 24.8145 30.4145Q24.7451 30.4839 24.6691 30.5462Q24.5932 30.6085 24.5116 30.6631Q24.4299 30.7177 24.3433 30.764Q24.2567 30.8103 24.166 30.8478Q24.0752 30.8854 23.9813 30.9139Q23.8873 30.9424 23.791 30.9616Q23.6947 30.9807 23.5969 30.9904Q23.4992 31 23.401 31L10.399 31Q10.3008 31 10.2031 30.9904Q10.1053 30.9807 10.009 30.9616Q9.91269 30.9424 9.81871 30.9139Q9.72474 30.8854 9.63401 30.8478Q9.54328 30.8103 9.45667 30.764Q9.37006 30.7177 9.28841 30.6631Q9.20675 30.6085 9.13084 30.5462Q9.05493 30.4839 8.98549 30.4145Q8.91605 30.3451 8.85375 30.2692Q8.79144 30.1932 8.73689 30.1116Q8.68233 30.0299 8.63603 29.9433Q8.58974 29.8567 8.55216 29.766Q8.51458 29.6753 8.48607 29.5813Q8.45756 29.4873 8.4384 29.391Q8.41925 29.2947 8.40962 29.1969Q8.39999 29.0992 8.39999 29.001L8.39999 2.999Q8.39999 2.9008 8.40962 2.80306Q8.41925 2.70533 8.4384 2.60901Q8.45756 2.5127 8.48607 2.41872Q8.51458 2.32474 8.55216 2.23402Q8.58974 2.14329 8.63603 2.05668Q8.68233 1.97007 8.73688 1.88842Q8.79144 1.80676 8.85375 1.73085Q8.91605 1.65493 8.98549 1.58549Q9.05493 1.51605 9.13084 1.45375Q9.20675 1.39145 9.28841 1.33689Q9.37006 1.28233 9.45667 1.23604Q9.54328 1.18975 9.63401 1.15216Q9.72474 1.11458 9.81872 1.08608Q9.91269 1.05757 10.009 1.03841Q10.1053 1.01925 10.2031 1.00963Q10.3008 1 10.399 1Z" id="path_1" />
    <rect width="32" height="32" id="artboard_1" />
    <clipPath id="clip_1">
      <use xlink:href="#artboard_1" clip-rule="evenodd" />
    </clipPath>
    <clipPath id="clip_2">
      <use xlink:href="#path_1" />
    </clipPath>
  </defs>
  <g id="logo32x32" clip-path="url(#clip_1)">
    <use xlink:href="#artboard_1" stroke="none" fill="#FFFFFF" />
    <g id="Rectangle" artboard="86dc3fea-68bf-4f0d-903a-2a08800281ca">
      <use stroke="none" fill="#EEEEEE" xlink:href="#path_1" fill-rule="evenodd" />
      <g clip-path="url(#clip_2)">
        <use xlink:href="#path_1" fill="none" stroke="#363636" stroke-width="1.3" />
      </g>
    </g>
    <g id="Groupes" transform="translate(13.000046 3.000061)" artboard="61912bc3-a197-48d7-8254-de50b31a2ac3">
      <path d="M1.8491 0L6.3511 0Q6.40063 0 6.44638 0.018954Q6.49214 0.037908 6.52717 0.0729304Q6.56219 0.107953 6.58114 0.153712Q6.6001 0.199471 6.6001 0.249L6.6001 0.251Q6.6001 0.300529 6.58114 0.346288Q6.56219 0.392047 6.52717 0.42707Q6.49214 0.462092 6.44638 0.481046Q6.40063 0.5 6.3511 0.5L1.8491 0.5Q1.79957 0.5 1.75381 0.481046Q1.70805 0.462092 1.67303 0.42707Q1.63801 0.392047 1.61905 0.346288Q1.6001 0.300529 1.6001 0.251L1.6001 0.249Q1.6001 0.199471 1.61905 0.153712Q1.63801 0.107953 1.67303 0.0729304Q1.70805 0.037908 1.75381 0.018954Q1.79957 0 1.8491 0L1.8491 0Z" id="Rectangle-2" fill="#363636" fill-rule="evenodd" stroke="none" />
      <path d="M0 0.3C0 0.134315 0.134315 0 0.3 0C0.465685 0 0.6 0.134315 0.6 0.3C0.6 0.465685 0.465685 0.6 0.3 0.6C0.134315 0.6 0 0.465685 0 0.3Z" id="Ovale" fill="#363636" fill-rule="evenodd" stroke="none" />
    </g>
  </g>
</svg>